<svg width="50" height="50" xmlns="http://www.w3.org/2000/svg">

 <g>
  <title>background</title>
  <rect fill="none" id="canvas_background" height="402" width="582" y="-1" x="-1"/>
 </g>
 <g>
  <title>Layer 1</title>
  <path stroke="null" id="svg_1" fill="#ffffff" d="m45.787153,0.055416l-41.574306,0c-2.286587,0 -4.157431,1.873796 -4.157431,4.16399l0,41.639902c0,2.290195 1.870844,4.16399 4.157431,4.16399l41.574306,0c2.286587,0 4.157431,-1.873796 4.157431,-4.16399l0,-41.639902c0,-2.290195 -1.870844,-4.16399 -4.157431,-4.16399z"/>
  <path stroke="null" id="camera" fill="#d43032" d="m39.232578,5.434505c0,0 -29.11209,0 -29.11209,0c-2.458354,0 -4.528547,2.086986 -4.528547,4.565282l0,0c0,0 0,30.000422 0,30.000422c0,2.478296 2.070193,4.565282 4.528547,4.565282c0,0 29.759026,0 29.759026,0c2.458354,-0.130437 4.528547,-2.086986 4.528547,-4.565282c0,0 0,-30.000422 0,-30.000422c0,-2.478296 -2.717128,-4.434845 -5.175483,-4.565282zm-14.232577,12.391479c3.881612,0 7.116289,3.260915 7.116289,7.174014c0,3.913099 -3.234677,7.174014 -7.116289,7.174014c-3.881612,0 -7.116289,-3.260915 -7.116289,-7.174014c0,-3.913099 3.234677,-7.174014 7.116289,-7.174014zm14.232577,18.91331c0,1.434803 -1.164484,2.608732 -2.587741,2.608732l-11.644836,0l-11.644836,0c-1.423258,0 -2.587741,-1.17393 -2.587741,-2.608732l0,-15.000211l3.10529,0c-0.388161,1.043493 -0.517548,2.086986 -0.517548,3.260915c0,6.521831 5.175483,11.739296 11.644836,11.739296s11.644836,-5.217465 11.644836,-11.739296c0,-1.17393 -0.129387,-2.217423 -0.517548,-3.260915l3.10529,0l0,15.000211zm0,-24.782958l0,3.913099l0,0c0,0.652183 -0.517548,1.304366 -1.293871,1.304366l0,0l-3.881612,0c-0.646935,0 -1.293871,-0.521746 -1.293871,-1.304366l0,0l0,-3.913099l0,0c0,0 0,0 0,0c0,-0.78262 0.517548,-1.304366 1.293871,-1.304366l3.881612,0l0,0c0.776322,0 1.293871,0.652183 1.293871,1.304366c0,0 0,0 0,0l0,0z"/>
 </g>
</svg>